<?xml version="1.0" encoding="UTF-8"?>
<svg version="1.1" xmlns="http://www.w3.org/2000/svg" width="500" height="500">
<path d="M0 0 C0.33 7.92 0.66 15.84 1 24 C1.99 23.67 2.98 23.34 4 23 C4 22.34 4 21.68 4 21 C8.45796263 18.21377336 13.40330094 17.4365653 18.484375 18.5390625 C20.74253897 19.25103139 22.87893165 19.94642776 25 21 C25.33 21.66 25.66 22.32 26 23 C26.66 21.68 27.32 20.36 28 19 C31.04122692 18.77717743 34.0820428 18.57131982 37.125 18.375 C38.40890625 18.27832031 38.40890625 18.27832031 39.71875 18.1796875 C46.00220384 17.79301342 50.61801206 18.06117261 55.6875 22.1875 C56.450625 22.785625 57.21375 23.38375 58 24 C58.99 23.67 59.98 23.34 61 23 C61 22.34 61 21.68 61 21 C67.76434142 17.74309487 71.85248148 18.08005933 79 20 C78.99476318 19.42967041 78.98952637 18.85934082 78.98413086 18.27172852 C78.96341779 15.70199677 78.9503581 13.13228253 78.9375 10.5625 C78.92912109 9.66466797 78.92074219 8.76683594 78.91210938 7.84179688 C78.90888672 6.98779297 78.90566406 6.13378906 78.90234375 5.25390625 C78.89710693 4.46314697 78.89187012 3.6723877 78.88647461 2.85766602 C79 1 79 1 80 0 C81.49738124 -0.0979057 82.99942892 -0.12974864 84.5 -0.125 C85.72203125 -0.12886719 85.72203125 -0.12886719 86.96875 -0.1328125 C89 0 89 0 90 1 C90.16003488 3.66426685 90.25942889 6.30560428 90.31640625 8.97265625 C90.33718735 9.77029892 90.35796844 10.56794159 90.37937927 11.38975525 C90.44496158 13.94724611 90.50379967 16.5048428 90.5625 19.0625 C90.60567699 20.79232882 90.64929101 22.52214679 90.69335938 24.25195312 C90.80065172 28.5011926 90.90189426 32.7505389 91 37 C91.99 36.34 92.98 35.68 94 35 C97.42318917 35.14263288 99.32879221 35.41539967 101.9375 37.6875 C103.38550221 40.83903422 102.929926 42.70949263 102 46 C99.57479454 48.42520546 98.37932259 48.68564441 95 49 C94.236875 48.67 93.47375 48.34 92.6875 48 C89.87345508 46.95291352 88.81750732 47.0054989 85.9375 47.4375 C82.50366871 47.92804733 81.1378659 47.92973805 78 47 C77.01 47.33 76.02 47.66 75 48 C69.45687701 48.53977977 65.6306809 48.36776793 61 45 C60.34 45 59.68 45 59 45 C58.67 45.66 58.34 46.32 58 47 C50.58823529 48.29411765 50.58823529 48.29411765 48 47 C47.70162597 43.62346356 47.58398386 40.28922047 47.52148438 36.90234375 C47.41602665 32.64974014 47.41602665 32.64974014 45.46484375 28.9921875 C44.98144531 28.66476563 44.49804688 28.33734375 44 28 C41.525 28.99 41.525 28.99 39 30 C39 35.61 39 41.22 39 47 C30.63076923 48.35384615 30.63076923 48.35384615 27.4375 46.5625 C26.963125 46.046875 26.48875 45.53125 26 45 C25.29875 45.48726562 24.5975 45.97453125 23.875 46.4765625 C20.62677184 48.19777035 18.64843804 48.40292172 15 48.375 C13.989375 48.38273437 12.97875 48.39046875 11.9375 48.3984375 C7.64531373 47.81625266 5.02409141 46.02409141 2 43 C1.01 44.65 0.02 46.3 -1 48 C-2.64666203 47.8864371 -4.29236082 47.75882619 -5.9375 47.625 C-6.85402344 47.55539063 -7.77054688 47.48578125 -8.71484375 47.4140625 C-9.46894531 47.27742188 -10.22304688 47.14078125 -11 47 C-11.33 46.34 -11.66 45.68 -12 45 C-12.61875 45.495 -13.2375 45.99 -13.875 46.5 C-18.20780479 48.5797463 -22.26131413 48.59329888 -27 48 C-29.30859375 46.98046875 -29.30859375 46.98046875 -31 46 C-31.33 46.66 -31.66 47.32 -32 48 C-33.6045556 47.85851011 -35.20863767 47.71164314 -36.8125 47.5625 C-37.70582031 47.48128906 -38.59914063 47.40007812 -39.51953125 47.31640625 C-42 47 -42 47 -45 46 C-45.99 46.66 -46.98 47.32 -48 48 C-53.50167865 48.682748 -58.4389471 48.72477456 -63.5 46.375 C-69.15611941 41.00168656 -70.66308946 36.58048716 -71 29 C-72.98 29 -74.96 29 -77 29 C-79.26709715 32.6438768 -79.35646792 35.95726677 -79.5625 40.1875 C-79.90130152 46.90130152 -79.90130152 46.90130152 -81 48 C-82.44176763 48.08678601 -83.88768437 48.1070267 -85.33203125 48.09765625 C-86.65364258 48.09282227 -86.65364258 48.09282227 -88.00195312 48.08789062 C-88.92943359 48.07951172 -89.85691406 48.07113281 -90.8125 48.0625 C-92.18631836 48.05573242 -92.18631836 48.05573242 -93.58789062 48.04882812 C-95.30055009 48.04009643 -97.01320115 48.02931688 -98.72583008 48.01586914 C-100.81717583 48.00127575 -102.90860334 48 -105 48 C-108.66666667 48 -112.33333333 48 -116 48 C-116 47.34 -116 46.68 -116 46 C-118.16874252 46.50603992 -119.99967627 46.99983813 -122 48 C-133.29403507 49.03134153 -133.29403507 49.03134153 -137.75 46 C-138.4925 45.34 -139.235 44.68 -140 44 C-141.15811388 45.05270463 -141.15811388 45.05270463 -142 47 C-145.3 47 -148.6 47 -152 47 C-152.04898438 45.87980469 -152.09796875 44.75960937 -152.1484375 43.60546875 C-152.22347856 42.13278797 -152.29902582 40.66013293 -152.375 39.1875 C-152.4059375 38.44951172 -152.436875 37.71152344 -152.46875 36.95117188 C-152.67346148 33.18106885 -152.86433827 31.20349259 -155 28 C-158.29075996 28.37904208 -158.29075996 28.37904208 -161 30 C-160.99246116 33.61487415 -160.92079333 37.21800362 -160.78515625 40.83007812 C-160.74656669 42.88760338 -160.86352313 44.94664339 -161 47 C-161.99 47.66 -162.98 48.32 -164 49 C-164.99 48.67 -165.98 48.34 -167 48 C-168.65 48 -170.3 48 -172 48 C-172 38.43 -172 28.86 -172 19 C-168 19 -164 19 -160 19 C-158.9275 18.79375 -157.855 18.5875 -156.75 18.375 C-151.44209671 17.84420967 -148.43816153 18.82940341 -144.3125 22.1875 C-143.549375 22.785625 -142.78625 23.38375 -142 24 C-141.01 23.67 -140.02 23.34 -139 23 C-139 22.34 -139 21.68 -139 21 C-132.81893674 18.41359764 -127.5942946 17.23887313 -121 19 C-120.01 19.66 -119.02 20.32 -118 21 C-117.34 20.34 -116.68 19.68 -116 19 C-108.60274238 17.50623697 -101.18572755 18.10244823 -93.6875 18.4375 C-91.17058341 18.54062101 -88.65365679 18.64349755 -86.13671875 18.74609375 C-84.47709106 18.81848267 -84.47709106 18.81848267 -82.78393555 18.89233398 C-79.78153451 19.00844894 -77.24868791 19.0578344 -74.3125 18.375 C-70.80931498 17.97841302 -68.48155233 18.68712604 -65.140625 19.65625 C-61.92137108 20.17321048 -59.27821618 19.28389342 -56.16796875 18.46484375 C-52.84177935 17.7516608 -50.26065515 18.12213131 -47 19 C-45.35 20.32 -43.7 21.64 -42 23 C-41.67 15.41 -41.34 7.82 -41 0 C-37.7 0 -34.4 0 -31 0 C-30.67 6.6 -30.34 13.2 -30 20 C-28.02 19.34 -26.04 18.68 -24 18 C-21.2265625 18.2421875 -21.2265625 18.2421875 -18.625 18.875 C-17.75101563 19.07867187 -16.87703125 19.28234375 -15.9765625 19.4921875 C-15.32429687 19.65976563 -14.67203125 19.82734375 -14 20 C-14 20.66 -14 21.32 -14 22 C-13.34 22 -12.68 22 -12 22 C-11.67 22.66 -11.34 23.32 -11 24 C-11.00523682 23.34402832 -11.01047363 22.68805664 -11.01586914 22.01220703 C-11.03661272 19.04981437 -11.04965176 16.08743697 -11.0625 13.125 C-11.07087891 12.09246094 -11.07925781 11.05992187 -11.08789062 9.99609375 C-11.09111328 9.00996094 -11.09433594 8.02382812 -11.09765625 7.0078125 C-11.10289307 6.09660645 -11.10812988 5.18540039 -11.11352539 4.24658203 C-11 2 -11 2 -10 0 C-6.03668602 -1.21101261 -4.29017764 -0.85803553 0 0 Z M-66 21 C-65 23 -65 23 -65 23 Z M11.875 27 C11.25625 27.66 10.6375 28.32 10 29 C12.31 29 14.62 29 17 29 C16.67 27.68 16.34 26.36 16 25 C13.75637427 24.7715451 13.75637427 24.7715451 11.875 27 Z M-57.3125 25.875 C-58.1478125 26.431875 -58.1478125 26.431875 -59 27 C-59 27.66 -59 28.32 -59 29 C-56.03 29 -53.06 29 -50 29 C-50 28.34 -50 27.68 -50 27 C-53.54754411 25.13150946 -53.54754411 25.13150946 -57.3125 25.875 Z M-131.3125 28.6875 C-133.14701782 30.87950696 -133.14701782 30.87950696 -133.5625 33.5 C-132.77346174 37.00683673 -130.90241012 38.04087317 -128 40 C-126.35 39.34 -124.7 38.68 -123 38 C-122.9729957 36.54176788 -122.95360213 35.08339325 -122.9375 33.625 C-122.92589844 32.81289062 -122.91429687 32.00078125 -122.90234375 31.1640625 C-122.85533666 28.95062858 -122.85533666 28.95062858 -124 27 C-127.27034459 26.63662838 -128.60883753 26.71455712 -131.3125 28.6875 Z M-112 30 C-112.53520921 33.21125525 -112.51113607 35.06792834 -110.9375 37.9375 C-107.81857551 39.64787795 -105.34442199 38.80513863 -102 38 C-100.56939872 35.13879744 -100.61307419 33.15989415 -101 30 C-105.6593296 26.41590031 -107.3406704 26.41590031 -112 30 Z M-29.9375 29.6875 C-31.28969442 32.63051139 -31.11068406 33.98528613 -30 37 C-27.162422 39.35014158 -27.162422 39.35014158 -23.875 38.6875 C-21.11913578 38.29355679 -21.11913578 38.29355679 -20 37 C-19.74996036 33.54178598 -19.74996036 33.54178598 -20 30 C-21.88138759 27.71069764 -21.88138759 27.71069764 -24.9375 27.625 C-28.03727981 27.71431131 -28.03727981 27.71431131 -29.9375 29.6875 Z M70.1875 28 C67.70710795 29.85476368 67.70710795 29.85476368 67.5 33 C67.78959523 35.93663262 67.78959523 35.93663262 69.1875 37.875 C71.65507108 39.40659584 73.14519831 39.42822025 76 39 C78.01951062 38.06402685 78.01951062 38.06402685 79 36 C78.76522801 32.35458155 78.76522801 32.35458155 78 29 C74.85115564 27.29062735 73.63591334 26.77389748 70.1875 28 Z M-59 35 C-57.52001118 38.94026381 -57.52001118 38.94026381 -55.3125 39.875 C-51.99101037 40.05453998 -49.1741798 38.92339776 -46 38 C-45.01 38.33 -44.02 38.66 -43 39 C-42.34 37.68 -41.68 36.36 -41 35 C-46.94 35 -52.88 35 -59 35 Z M10 35 C10.66 36.32 11.32 37.64 12 39 C14.96003468 39.9934389 14.96003468 39.9934389 18 40 C18.66 39.34 19.32 38.68 20 38 C23.625 38.375 23.625 38.375 27 39 C27.33 37.68 27.66 36.36 28 35 C22.06 35 16.12 35 10 35 Z M-42 37 C-41 39 -41 39 -41 39 Z M0 40 C1 42 1 42 1 42 Z " fill="#E3A9A9" transform="translate(352,205)"/>
<path d="M0 0 C1.25433458 3.76300374 1.10695422 7.27210909 1.0625 11.1875 C1.05798828 11.93708984 1.05347656 12.68667969 1.04882812 13.45898438 C1.03706354 15.30602383 1.01912865 17.15302213 1 19 C2.60101563 18.72929687 2.60101563 18.72929687 4.234375 18.453125 C9.3442669 17.83824174 13.73774265 18.30330699 18 21.5 C19 23 19 23 19 25 C20.65 24.34 22.3 23.68 24 23 C24 22.34 24 21.68 24 21 C30.77191107 17.9575472 35.92606555 17.58669023 43 20 C43.99 20.66 44.98 21.32 46 22 C49.03452373 21.62068453 50.37561021 20.74959319 53 19 C58.39963339 18.01006721 62.53953574 18.12289644 68 19 C67.98839844 17.87980469 67.97679687 16.75960937 67.96484375 15.60546875 C67.95546378 14.13281417 67.9463638 12.66015778 67.9375 11.1875 C67.92912109 10.44951172 67.92074219 9.71152344 67.91210938 8.95117188 C67.89740172 5.70077932 67.96468298 3.10595105 69 0 C75.5 -1.25 75.5 -1.25 80 1 C80 9.25 80 17.5 80 26 C83.09596458 25.34565884 83.09596458 25.34565884 84.0625 23.0625 C84.5265625 22.0415625 84.5265625 22.0415625 85 21 C87 19 87 19 89.15478516 18.77294922 C90.02409668 18.78342285 90.8934082 18.79389648 91.7890625 18.8046875 C92.73007813 18.81113281 93.67109375 18.81757813 94.640625 18.82421875 C95.62546875 18.84097656 96.6103125 18.85773438 97.625 18.875 C98.61757812 18.88402344 99.61015625 18.89304688 100.6328125 18.90234375 C103.08878134 18.92595884 105.54427168 18.95889201 108 19 C109.05127928 22.38391578 109.04087598 25.33203425 108.87890625 28.859375 C108.83056641 29.97441406 108.78222656 31.08945313 108.73242188 32.23828125 C108.67634766 33.39714844 108.62027344 34.55601562 108.5625 35.75 C108.51029297 36.92433594 108.45808594 38.09867188 108.40429688 39.30859375 C108.27473776 42.20600664 108.13977553 45.10306493 108 48 C91.15327982 49.03377601 91.15327982 49.03377601 86.125 45.125 C85.06377677 44.10326415 84.01939254 43.06347438 83 42 C81.515 41.01 81.515 41.01 80 40 C80 42.31 80 44.62 80 47 C76.27082295 47.69380038 72.79156816 48.10247482 69 48 C66.87877677 48 64.75747859 48.02597606 62.63671875 48.0703125 C61.33347656 48.08835938 60.03023438 48.10640625 58.6875 48.125 C57.39199219 48.14820313 56.09648438 48.17140625 54.76171875 48.1953125 C51 48 51 48 47.76953125 46.8671875 C45.09807965 45.70359761 45.09807965 45.70359761 42.984375 46.84765625 C42.32953125 47.22792969 41.6746875 47.60820312 41 48 C33.74352316 48.98480757 28.28707381 48.45395644 22.328125 44.09375 C21.88984375 43.7328125 21.4515625 43.371875 21 43 C20.67 44.32 20.34 45.64 20 47 C13.375 48.125 13.375 48.125 10 47 C9.94392578 45.31970703 9.94392578 45.31970703 9.88671875 43.60546875 C9.82105743 42.1327791 9.75461014 40.66012434 9.6875 39.1875 C9.65366211 38.08051758 9.65366211 38.08051758 9.61914062 36.95117188 C9.44442045 32.66892961 9.44442045 32.66892961 7.45703125 28.98828125 C6.97621094 28.66214844 6.49539062 28.33601563 6 28 C4.35 28.66 2.7 29.32 1 30 C1 35.61 1 41.22 1 47 C-4.10164041 47.68021872 -9.16689495 48.1420321 -14.3125 48.3125 C-15.79169922 48.36857422 -15.79169922 48.36857422 -17.30078125 48.42578125 C-20 48 -20 48 -22.2734375 46.45703125 C-24.53465951 43.23913838 -24.93603885 40.190781 -25.3125 36.375 C-25.39822266 35.694375 -25.48394531 35.01375 -25.57226562 34.3125 C-26.15144086 29.30288172 -26.15144086 29.30288172 -25 27 C-26.32 27 -27.64 27 -29 27 C-29 24.36 -29 21.72 -29 19 C-27.68 19 -26.36 19 -25 19 C-25 15.7 -25 12.4 -25 9 C-21.37 9 -17.74 9 -14 9 C-14 12.3 -14 15.6 -14 19 C-12.68 19 -11.36 19 -10 19 C-10.10699219 17.72382813 -10.21398437 16.44765625 -10.32421875 15.1328125 C-10.44612746 13.46360099 -10.56717677 11.79432655 -10.6875 10.125 C-10.76033203 9.28324219 -10.83316406 8.44148437 -10.90820312 7.57421875 C-10.96298828 6.76855469 -11.01777344 5.96289062 -11.07421875 5.1328125 C-11.16062622 4.01737061 -11.16062622 4.01737061 -11.2487793 2.87939453 C-11.16668213 2.25919434 -11.08458496 1.63899414 -11 1 C-6.8204355 -1.78637633 -4.85331323 -0.79562512 0 0 Z M97 23 C96.67 23.99 96.34 24.98 96 26 C95.01 26.33 94.02 26.66 93 27 C93 27.66 93 28.32 93 29 C92.34 29 91.68 29 91 29 C89.36323743 30.9600281 89.36323743 30.9600281 88 33 C88.66 33 89.32 33 90 33 C90.33 33.99 90.66 34.98 91 36 C91.66 36 92.32 36 93 36 C93.66 37.32 94.32 38.64 95 40 C95.99 39.67 96.98 39.34 98 39 C98 33.72 98 28.44 98 23 C97.67 23 97.34 23 97 23 Z M47 24 C48 26 48 26 48 26 Z M31.75 25.875 C31.1725 26.24625 30.595 26.6175 30 27 C30 27.66 30 28.32 30 29 C32.64 29 35.28 29 38 29 C38 28.34 38 27.68 38 27 C35.05590637 25.06403854 35.05590637 25.06403854 31.75 25.875 Z M65.75 25.5 C63.09547582 25.98264076 60.69005043 26.07685858 58 26 C58 26.66 58 27.32 58 28 C62.95 29.98 62.95 29.98 68 32 C68.33 29.69 68.66 27.38 69 25 C67.77855016 24.96384492 67.77855016 24.96384492 65.75 25.5 Z M-14 28 C-14.0270043 29.45823212 -14.04639787 30.91660675 -14.0625 32.375 C-14.07410156 33.18710938 -14.08570313 33.99921875 -14.09765625 34.8359375 C-14.14466334 37.04937142 -14.14466334 37.04937142 -13 39 C-12.01 38.67 -11.02 38.34 -10 38 C-10 34.37 -10 30.74 -10 27 C-12.0745356 26.8509288 -12.0745356 26.8509288 -14 28 Z M49 33 C49 33.66 49 34.32 49 35 C43.39 35 37.78 35 32 35 C31.67 35.66 31.34 36.32 31 37 C31.99 38.485 31.99 38.485 33 40 C35.91182604 39.52598181 38.76941139 39.06039225 41.625 38.3125 C44.43811781 37.94235292 45.63583538 38.51145191 48 40 C48.99 39.34 49.98 38.68 51 38 C51.99 38.66 52.98 39.32 54 40 C56.62531524 40.16713569 56.62531524 40.16713569 59 40 C58.33372488 36.88403088 58.33372488 36.88403088 55.93359375 35.83203125 C55.10988281 35.49558594 54.28617188 35.15914062 53.4375 34.8125 C52.61121094 34.46832031 51.78492187 34.12414062 50.93359375 33.76953125 C50.29550781 33.51558594 49.65742187 33.26164062 49 33 Z " fill="#E3A9AA" transform="translate(70,205)"/>
<path d="M0 0 C1.31291016 0.23976562 1.31291016 0.23976562 2.65234375 0.484375 C5.26613887 1.31468917 6.40774818 2.08735405 8.0625 4.25 C8.0625 4.91 8.0625 5.57 8.0625 6.25 C9.7125 5.59 11.3625 4.93 13.0625 4.25 C13.0625 3.59 13.0625 2.93 13.0625 2.25 C19.75605394 -0.75724887 25.0873638 -1.32802961 32.0625 1.25 C34.35546875 2.8359375 34.35546875 2.8359375 36.0625 4.25 C35.7325 5.57 35.4025 6.89 35.0625 8.25 C34.0725 7.92 33.0825 7.59 32.0625 7.25 C32.0625 6.59 32.0625 5.93 32.0625 5.25 C31.0725 5.25 30.0825 5.25 29.0625 5.25 C28.7325 6.9 28.4025 8.55 28.0625 10.25 C27.5675 9.26 27.5675 9.26 27.0625 8.25 C24.21133604 7.04373833 22.56225978 7.32762348 19.4375 7.8125 C17.766875 8.0290625 17.766875 8.0290625 16.0625 8.25 C15.4025 7.59 14.7425 6.93 14.0625 6.25 C13.0725 6.91 12.0825 7.57 11.0625 8.25 C10.0725 8.25 9.0825 8.25 8.0625 8.25 C8.0625 10.56 8.0625 12.87 8.0625 15.25 C5.59971199 12.78721199 5.06478745 10.54323018 4.0625 7.25 C2.4125 7.25 0.7625 7.25 -0.9375 7.25 C-0.6075 7.58 -0.2775 7.91 0.0625 8.25 C0.14881874 9.59267413 0.16956473 10.93974322 0.16015625 12.28515625 C0.15693359 13.09404297 0.15371094 13.90292969 0.15039062 14.73632812 C0.14201172 15.58646484 0.13363281 16.43660156 0.125 17.3125 C0.12048828 18.16650391 0.11597656 19.02050781 0.11132812 19.90039062 C0.09950373 22.01695663 0.08156769 24.13348685 0.0625 26.25 C2.97902174 26.41681109 2.97902174 26.41681109 6.0625 26.25 C6.7225 25.59 7.3825 24.93 8.0625 24.25 C8.7225 24.91 9.3825 25.57 10.0625 26.25 C9.7325 26.91 9.4025 27.57 9.0625 28.25 C5.24265204 29.02811718 2.79409669 29.49386556 -0.9375 28.25 C-0.99357422 26.58710938 -0.99357422 26.58710938 -1.05078125 24.890625 C-1.11645448 23.42705026 -1.18290135 21.96351009 -1.25 20.5 C-1.27255859 19.77039063 -1.29511719 19.04078125 -1.31835938 18.2890625 C-1.53433776 13.96949488 -2.02364964 11.46851568 -4.9375 8.25 C-4.9375 7.59 -4.9375 6.93 -4.9375 6.25 C-6.39583358 4.62485532 -6.39583358 4.62485532 -7.9375 3.25 C-7.6075 2.26 -7.2775 1.27 -6.9375 0.25 C-4.27797754 -1.07976123 -2.89540707 -0.56122428 0 0 Z " fill="#E4ACAF" transform="translate(80.9375,223.75)"/>
<path d="M0 0 C1.32 0 2.64 0 4 0 C4.33 9.9 4.66 19.8 5 30 C5.99 29.34 6.98 28.68 8 28 C8.33 28.99 8.66 29.98 9 31 C9.33 29.35 9.66 27.7 10 26 C11.16959987 26.97566112 12.33561177 27.955625 13.5 28.9375 C14.1496875 29.48277344 14.799375 30.02804688 15.46875 30.58984375 C15.9740625 31.05519531 16.479375 31.52054688 17 32 C17 32.33 17 32.66 17 33 C15.02 33 13.04 33 11 33 C11 34.65 11 36.3 11 38 C11.66 38 12.32 38 13 38 C13.33 40.31 13.66 42.62 14 45 C8.33846154 43.52307692 8.33846154 43.52307692 6.625 40.875 C6.41875 40.25625 6.2125 39.6375 6 39 C5.34 41.31 4.68 43.62 4 46 C3.67 46 3.34 46 3 46 C2.67 31.81 2.34 17.62 2 3 C1.01 2.67 0.02 2.34 -1 2 C-0.67 1.34 -0.34 0.68 0 0 Z " fill="#E6A5A6" transform="translate(348,205)"/>
<path d="M0 0 C1.65 0 3.3 0 5 0 C5 0.66 5 1.32 5 2 C5.66 2 6.32 2 7 2 C7.33 1.34 7.66 0.68 8 0 C8 1.98 8 3.96 8 6 C7.34 6 6.68 6 6 6 C5.34 7.65 4.68 9.3 4 11 C4.66 11.33 5.32 11.66 6 12 C5.85915204 13.79206547 5.71216299 15.58364917 5.5625 17.375 C5.48128906 18.37273437 5.40007812 19.37046875 5.31640625 20.3984375 C5 23 5 23 4 25 C5.32 25.66 6.64 26.32 8 27 C4.91810344 27.91315454 2.20344581 28.04250011 -1 28 C-1.14256667 18.60644064 -0.72492332 9.35927791 0 0 Z M3 12 C4 14 4 14 4 14 Z " fill="#EAABAC" transform="translate(181,225)"/>
<path d="M0 0 C2.0625 0.4375 2.0625 0.4375 4 1 C2 3 2 3 -1 5 C-0.855625 5.5775 -0.71125 6.155 -0.5625 6.75 C-0.04166667 8.83333333 0.47916667 10.91666667 1 13 C1.99 13 2.98 13 4 13 C5.73223664 14.94348501 7.39881603 16.94720004 9 19 C9.66 19.66 10.32 20.32 11 21 C11 21.66 11 22.32 11 23 C10.34 23 9.68 23 9 23 C9 22.34 9 21.68 9 21 C8.34 21 7.68 21 7 21 C7 20.34 7 19.68 7 19 C5.35 18.67 3.7 18.34 2 18 C1.83312552 20.41645782 1.83312552 20.41645782 2 23 C5.02093215 26.02093215 8.56372072 25.46676834 12.625 25.625 C13.42679688 25.66367188 14.22859375 25.70234375 15.0546875 25.7421875 C17.03607556 25.83653931 19.01800645 25.91936215 21 26 C21 26.33 21 26.66 21 27 C5.24102067 29.10374724 5.24102067 29.10374724 0.0625 25.3125 C-2.48240413 23.05844205 -3.42385639 21.34746733 -4 18 C-2.68 17.67 -1.36 17.34 0 17 C-0.99 16.01 -1.98 15.02 -3 14 C-3 14.66 -3 15.32 -3 16 C-3.99 16.33 -4.98 16.66 -6 17 C-5.835 16.030625 -5.67 15.06125 -5.5 14.0625 C-5.14007707 12.04016429 -5.14007707 12.04016429 -5 10 C-5 5.88168014 -2.91010261 2.91010261 0 0 Z " fill="#E5AEAD" transform="translate(156,225)"/>
<path d="M0 0 C0.33 0 0.66 0 1 0 C1.309375 0.969375 1.61875 1.93875 1.9375 2.9375 C2.69523342 5.84065792 2.69523342 5.84065792 4 7 C5.91424457 6.8981629 5.91424457 6.8981629 8.0625 6.5625 C10.0115625 6.2840625 10.0115625 6.2840625 12 6 C12 6.99 12 7.98 12 9 C12.1496644 10.39775858 12.31720487 11.7936871 12.5 13.1875 C12.665 14.445625 12.83 15.70375 13 17 C8.33333333 17 3.66666667 17 -1 17 C-0.67 16.01 -0.34 15.02 0 14 C-0.66 14 -1.32 14 -2 14 C-2.3690205 4.58997722 -2.3690205 4.58997722 0 0 Z " fill="#E0A5A2" transform="translate(239,236)"/>
<path d="M0 0 C0.33 0.66 0.66 1.32 1 2 C3.64 1.67 6.28 1.34 9 1 C9 1.99 9 2.98 9 4 C8.34 4 7.68 4 7 4 C6.49846959 5.81207712 5.99881588 7.62467376 5.5 9.4375 C5.2215625 10.44683594 4.943125 11.45617187 4.65625 12.49609375 C3.95774542 14.72980861 3.95774542 14.72980861 4 16 C4.66 16 5.32 16 6 16 C6.33 15.34 6.66 14.68 7 14 C7.33 14.99 7.66 15.98 8 17 C7.34 17 6.68 17 6 17 C6.33 18.32 6.66 19.64 7 21 C6.01 21 5.02 21 4 21 C3.34 20.34 2.68 19.68 2 19 C1.34 19.66 0.68 20.32 0 21 C-3 23 -3 23 -6 23 C-6 22.01 -6 21.02 -6 20 C-5.34 20 -4.68 20 -4 20 C-3.87625 19.21625 -3.7525 18.4325 -3.625 17.625 C-3 15 -3 15 -1 13 C-0.67 13.33 -0.34 13.66 0 14 C0 11.80363095 -0.32624548 10.088639 -1 8 C-1.66 7.67 -2.32 7.34 -3 7 C-2.01 4.69 -1.02 2.38 0 0 Z " fill="#E2A4A3" transform="translate(211,228)"/>
<path d="M0 0 C0 0.99 0 1.98 0 3 C0.99 3.33 1.98 3.66 3 4 C1.25 7.875 1.25 7.875 -1 9 C-0.67 9.66 -0.34 10.32 0 11 C0.66 11 1.32 11 2 11 C2 10.34 2 9.68 2 9 C3.32 9.66 4.64 10.32 6 11 C5.34 11.66 4.68 12.32 4 13 C3.34 13 2.68 13 2 13 C1.34 13.66 0.68 14.32 0 15 C-0.33 15.33 -0.66 15.66 -1 16 C-1.68268138 17.32520503 -2.3507041 18.65812182 -3 20 C-3 18.68 -3 17.36 -3 16 C-3.99 18.475 -3.99 18.475 -5 21 C-6.32 20.67 -7.64 20.34 -9 20 C-9 16.04 -9 12.08 -9 8 C-8.01 8 -7.02 8 -6 8 C-5.67 5.69 -5.34 3.38 -5 1 C-4.34 1.33 -3.68 1.66 -3 2 C-2.01 1.34 -1.02 0.68 0 0 Z " fill="#E2A5A4" transform="translate(151,230)"/>
<path d="M0 0 C2 2 2 2 2.4375 5.4375 C2 9 2 9 -0.1875 11 C-3.38801307 12.1379602 -4.83954158 12.19584913 -8 11 C-10.78637633 6.8204355 -9.79562512 4.85331323 -9 0 C-5.67778618 -1.10740461 -3.35896892 -0.97233311 0 0 Z " fill="#D3A9A8" transform="translate(177,208)"/>
<path d="M0 0 C0.66 0 1.32 0 2 0 C2.33 1.65 2.66 3.3 3 5 C3.66 5 4.32 5 5 5 C5.33 7.31 5.66 9.62 6 12 C5.34 12 4.68 12 4 12 C4.33 13.32 4.66 14.64 5 16 C2.47524538 17.26237731 0.68799534 17.09856404 -2.125 17.0625 C-3.03507812 17.05347656 -3.94515625 17.04445312 -4.8828125 17.03515625 C-5.93082031 17.01775391 -5.93082031 17.01775391 -7 17 C-8.0625 15.1875 -8.0625 15.1875 -9 13 C-8.67 12.01 -8.34 11.02 -8 10 C-6.35 10.33 -4.7 10.66 -3 11 C-2.49384702 9.73160474 -1.99530901 8.46016898 -1.5 7.1875 C-1.2215625 6.47980469 -0.943125 5.77210938 -0.65625 5.04296875 C0.1529162 2.88158784 0.1529162 2.88158784 0 0 Z " fill="#E8A6A6" transform="translate(63,234)"/>
<path d="M0 0 C0.99 0.33 1.98 0.66 3 1 C5.04102015 5.50105768 5.21732794 9.4816192 5.125 14.375 C5.10695313 15.62023437 5.08890625 16.86546875 5.0703125 18.1484375 C5.04710937 19.08945313 5.02390625 20.03046875 5 21 C4.01 21.33 3.02 21.66 2 22 C0.5 20.875 0.5 20.875 -1 19 C-1.04346799 17.00047242 -1.039992 14.99960012 -1 13 C-1.65257873 11.327767 -2.31867549 9.66072849 -3 8 C-3.3125 5.375 -3.3125 5.375 -3 3 C-1.5 1.1875 -1.5 1.1875 0 0 Z " fill="#E7A5A6" transform="translate(383,229)"/>
<path d="M0 0 C-1.875 5.75 -1.875 5.75 -3 8 C-2.01 7.67 -1.02 7.34 0 7 C0.33 8.32 0.66 9.64 1 11 C0.01 11.495 0.01 11.495 -1 12 C-2.12224855 13.88013106 -2.12224855 13.88013106 -3.125 16.0625 C-3.47820312 16.79597656 -3.83140625 17.52945313 -4.1953125 18.28515625 C-4.59363281 19.13400391 -4.59363281 19.13400391 -5 20 C-6.32 19.34 -7.64 18.68 -9 18 C-9.08096803 16.54257537 -9.13917774 15.08387193 -9.1875 13.625 C-9.22230469 12.81289062 -9.25710938 12.00078125 -9.29296875 11.1640625 C-9.19628906 10.44992188 -9.09960938 9.73578125 -9 9 C-8.01 8.34 -7.02 7.68 -6 7 C-6.66 6.34 -7.32 5.68 -8 5 C-7.01 4.67 -6.02 4.34 -5 4 C-4.67 3.01 -4.34 2.02 -4 1 C-2 0 -2 0 0 0 Z " fill="#E4A5A8" transform="translate(293,226)"/>
<path d="M0 0 C2.97 0 5.94 0 9 0 C9 1.98 9 3.96 9 6 C7.68 5.34 6.36 4.68 5 4 C4.01 5.485 4.01 5.485 3 7 C2.67 6.67 2.34 6.34 2 6 C2.33 7.98 2.66 9.96 3 12 C3.33 12 3.66 12 4 12 C4 21 4 21 2.5 22.75 C2.005 23.1625 1.51 23.575 1 24 C0.01956036 21.05868109 -0.11621202 19.17498335 -0.09765625 16.11328125 C-0.09443359 15.17548828 -0.09121094 14.23769531 -0.08789062 13.27148438 C-0.07532227 11.80678711 -0.07532227 11.80678711 -0.0625 10.3125 C-0.05798828 9.32443359 -0.05347656 8.33636719 -0.04882812 7.31835938 C-0.0370432 4.87888042 -0.01910783 2.43943259 0 0 Z " fill="#E6ACAA" transform="translate(262,225)"/>
<path d="M0 0 C0.33 0.99 0.66 1.98 1 3 C0.01 3.495 0.01 3.495 -1 4 C-0.97679687 5.14597656 -0.95359375 6.29195312 -0.9296875 7.47265625 C-0.91091521 9.0025976 -0.89271659 10.53254606 -0.875 12.0625 C-0.85824219 12.81466797 -0.84148437 13.56683594 -0.82421875 14.34179688 C-0.78134879 19.29327709 -1.41600625 23.30414451 -3 28 C-3.66 27.67 -4.32 27.34 -5 27 C-5.19625099 23.04204914 -5.38051982 19.08363065 -5.5625 15.125 C-5.61857422 13.99707031 -5.67464844 12.86914062 -5.73242188 11.70703125 C-5.80493164 10.09248047 -5.80493164 10.09248047 -5.87890625 8.4453125 C-5.9260376 7.45031738 -5.97316895 6.45532227 -6.02172852 5.43017578 C-6 3 -6 3 -5 1 C-2.4375 0.375 -2.4375 0.375 0 0 Z " fill="#DFAFB1" transform="translate(347,204)"/>
<path d="M0 0 C3.77545388 1.09068668 6.47043472 1.9083091 9 5 C9.66 4.67 10.32 4.34 11 4 C11 4.99 11 5.98 11 7 C14.3 7 17.6 7 21 7 C21 7.33 21 7.66 21 8 C12.585 8.495 12.585 8.495 4 9 C3.67 8.34 3.34 7.68 3 7 C2.34 7 1.68 7 1 7 C1.33 7.99 1.66 8.98 2 10 C0.02 10.99 0.02 10.99 -2 12 C-2 11.01 -2 10.02 -2 9 C-1.34 9 -0.68 9 0 9 C-0.33 8.34 -0.66 7.68 -1 7 C-1.125 3.9375 -1.125 3.9375 -1 1 C-0.67 0.67 -0.34 0.34 0 0 Z " fill="#E5A5A5" transform="translate(95,232)"/>
<path d="M0 0 C1.65 0.33 3.3 0.66 5 1 C5 12.22 5 23.44 5 35 C4.01 35.495 4.01 35.495 3 36 C3 25.11 3 14.22 3 3 C1.68 3 0.36 3 -1 3 C-0.67 2.01 -0.34 1.02 0 0 Z " fill="#D7B3B3" transform="translate(437,205)"/>
<path d="M0 0 C0.70125 0.53625 1.4025 1.0725 2.125 1.625 C2.455 0.635 2.785 -0.355 3.125 -1.375 C3.785 -1.045 4.445 -0.715 5.125 -0.375 C5.125 0.945 5.125 2.265 5.125 3.625 C5.785 3.625 6.445 3.625 7.125 3.625 C7.125 2.965 7.125 2.305 7.125 1.625 C10.22874171 1.36635486 11.65265486 1.26716278 14.1875 3.1875 C15.99579889 4.87503428 15.99579889 4.87503428 18.125 4.375 C19.115 4.00375 19.115 4.00375 20.125 3.625 C22.125 3.125 22.125 3.125 24.125 2.625 C21.81787028 5.46454427 20.76524405 6.54660277 17.0625 7 C14.125 6.625 14.125 6.625 11.125 4.625 C9.78044185 4.9096968 8.44730614 5.2503063 7.125 5.625 C4.58203125 5.57421875 4.58203125 5.57421875 1.9375 5.3125 C1.05707031 5.23386719 0.17664063 5.15523437 -0.73046875 5.07421875 C-1.79201172 4.85185547 -1.79201172 4.85185547 -2.875 4.625 C-3.205 3.965 -3.535 3.305 -3.875 2.625 C-4.865 3.12 -4.865 3.12 -5.875 3.625 C-5.875 2.965 -5.875 2.305 -5.875 1.625 C-6.865 1.295 -7.855 0.965 -8.875 0.625 C-3.58269231 -1.71346154 -3.58269231 -1.71346154 0 0 Z " fill="#E6B3B0" transform="translate(108.875,234.375)"/>
<path d="M0 0 C4.18773998 4.18773998 4.125 12.49243716 4.125 18.25 C4.08375 19.1575 4.0425 20.065 4 21 C4.99 21 5.98 21 7 21 C7 19.68 7 18.36 7 17 C7.66 17 8.32 17 9 17 C9.66 18.98 10.32 20.96 11 23 C7.26432828 23.76411467 4.65188082 24.07174763 1 23 C0.93941406 22.10796875 0.87882813 21.2159375 0.81640625 20.296875 C0.73261719 19.12640625 0.64882812 17.9559375 0.5625 16.75 C0.48128906 15.58984375 0.40007812 14.4296875 0.31640625 13.234375 C0.09596277 10.14534801 0.09596277 10.14534801 -0.5625 7.78125 C-1.22825614 5.07067141 -0.5513777 2.69562433 0 0 Z " fill="#E1AFAE" transform="translate(139,229)"/>
<path d="M0 0 C0.99 1.485 0.99 1.485 2 3 C2.66 3 3.32 3 4 3 C4.33 2.34 4.66 1.68 5 1 C5.33 2.32 5.66 3.64 6 5 C7.32 4.67 8.64 4.34 10 4 C10 4.66 10 5.32 10 6 C8.34614767 7.34919532 6.678298 8.68133728 5 10 C4.01 11.485 4.01 11.485 3 13 C3 12.01 3 11.02 3 10 C2.34 10 1.68 10 1 10 C1.515625 10.94875 2.03125 11.8975 2.5625 12.875 C3.036875 13.90625 3.51125 14.9375 4 16 C3.67 16.66 3.34 17.32 3 18 C2.01 17.67 1.02 17.34 0 17 C0 11.39 0 5.78 0 0 Z " fill="#E1A6A3" transform="translate(409,231)"/>
<path d="M0 0 C-2.31 0 -4.62 0 -7 0 C-7.33 1.32 -7.66 2.64 -8 4 C-8.99 4 -9.98 4 -11 4 C-11.12375 5.134375 -11.2475 6.26875 -11.375 7.4375 C-11.58125 8.613125 -11.7875 9.78875 -12 11 C-12.99 11.495 -12.99 11.495 -14 12 C-14.33 11.01 -14.66 10.02 -15 9 C-15.99 9.66 -16.98 10.32 -18 11 C-17.125 5.25 -17.125 5.25 -16 3 C-15.34 3 -14.68 3 -14 3 C-14 2.34 -14 1.68 -14 1 C-9.30094583 -1.71099279 -4.77976062 -3.1252281 0 0 Z " fill="#E6ACAC" transform="translate(370,225)"/>
<path d="M0 0 C0.33 0 0.66 0 1 0 C1.33 8.25 1.66 16.5 2 25 C2.99 25 3.98 25 5 25 C5.33 24.34 5.66 23.68 6 23 C6 23.99 6 24.98 6 26 C7.98 26 9.96 26 12 26 C11.67 26.66 11.34 27.32 11 28 C5.06 28 -0.88 28 -7 28 C-7 27.01 -7 26.02 -7 25 C-4.69 25.33 -2.38 25.66 0 26 C-0.33 25.01 -0.66 24.02 -1 23 C-1.015731 21.22487115 -0.96706687 19.44878931 -0.87890625 17.67578125 C-0.83056641 16.64775391 -0.78222656 15.61972656 -0.73242188 14.56054688 C-0.67634766 13.48869141 -0.62027344 12.41683594 -0.5625 11.3125 C-0.51029297 10.22904297 -0.45808594 9.14558594 -0.40429688 8.02929688 C-0.27458784 5.35257409 -0.13962067 2.67622112 0 0 Z " fill="#EDB8B4" transform="translate(260,225)"/>
<path d="M0 0 C1.32 0.33 2.64 0.66 4 1 C4.495 7.93 4.495 7.93 5 15 C-10.57894737 16.94736842 -10.57894737 16.94736842 -15 14 C-11.16275828 13.09586327 -7.62497726 12.89423102 -3.6875 12.9375 C-2.08455078 12.95103516 -2.08455078 12.95103516 -0.44921875 12.96484375 C0.35902344 12.97644531 1.16726562 12.98804688 2 13 C1.814375 12.360625 1.62875 11.72125 1.4375 11.0625 C1.293125 10.381875 1.14875 9.70125 1 9 C1.33 8.67 1.66 8.34 2 8 C2.04080783 6.00041636 2.04254356 3.99954746 2 2 C1.34 2 0.68 2 0 2 C0 1.34 0 0.68 0 0 Z " fill="#D9B0B0" transform="translate(66,237)"/>
<path d="M0 0 C0.33 1.32 0.66 2.64 1 4 C1.66 4.66 2.32 5.32 3 6 C3.66 5.67 4.32 5.34 5 5 C5 5.99 5 6.98 5 8 C5.99 7.67 6.98 7.34 8 7 C7.67 7.99 7.34 8.98 7 10 C6.34 10 5.68 10 5 10 C5 11.32 5 12.64 5 14 C3.02 14.33 1.04 14.66 -1 15 C-1 13.02 -1 11.04 -1 9 C-1.99 8.67 -2.98 8.34 -4 8 C-2.68 5.36 -1.36 2.72 0 0 Z M5 4 C7 5 7 5 7 5 Z " fill="#E0A1A1" transform="translate(232,225)"/>
<path d="M0 0 C0.66 0.33 1.32 0.66 2 1 C1.67257812 1.64324219 1.34515625 2.28648437 1.0078125 2.94921875 C-0.32412793 6.98117797 -0.21679197 10.60066065 -0.125 14.8125 C-0.11146484 15.99489258 -0.11146484 15.99489258 -0.09765625 17.20117188 C-0.07422504 19.13424666 -0.03835838 21.0671638 0 23 C-1.43410368 23.24954005 -2.87260072 23.47392642 -4.3125 23.6875 C-5.11300781 23.81511719 -5.91351563 23.94273437 -6.73828125 24.07421875 C-9 24 -9 24 -12 21 C-9.03 21 -6.06 21 -3 21 C-3.33 16.05 -3.66 11.1 -4 6 C-3.34 6 -2.68 6 -2 6 C-1.34 4.02 -0.68 2.04 0 0 Z " fill="#DDB4B3" transform="translate(391,229)"/>
<path d="M0 0 C0.66 0.33 1.32 0.66 2 1 C2 1.66 2 2.32 2 3 C7.13630011 4.02726002 10.11761772 3.73595814 15 2 C17.375 2.375 17.375 2.375 19 3 C19 3.99 19 4.98 19 6 C14.82757272 8.08621364 9.54313381 7.45549649 5 7 C2.47249673 5.93603263 1.07277594 4.8424675 -1 3 C-0.67 2.01 -0.34 1.02 0 0 Z " fill="#D9ADAD" transform="translate(213,246)"/>
<path d="M0 0 C2.35086573 2.13715066 3.6612688 4.1312903 5 7 C5.33 7.33 5.66 7.66 6 8 C6.32526705 11.36109285 6.5135946 14.7233399 6.71875 18.09375 C6.6785989 20.89050132 6.6785989 20.89050132 8 22 C8.04063832 23.66617115 8.042721 25.33388095 8 27 C7.34 27 6.68 27 6 27 C1.46052632 13.07894737 1.46052632 13.07894737 4 8 C2.68 8 1.36 8 0 8 C0 5.36 0 2.72 0 0 Z " fill="#E0BABB" transform="translate(41,224)"/>
<path d="M0 0 C1.20462891 -0.02126953 1.20462891 -0.02126953 2.43359375 -0.04296875 C4.5625 0.1875 4.5625 0.1875 6.5625 2.1875 C6.6875 5.8125 6.6875 5.8125 6.5625 9.1875 C3.7785817 7.79554085 3.58351003 6.03174221 2.5625 3.1875 C2.2325 4.8375 1.9025 6.4875 1.5625 8.1875 C0.5725 7.8575 -0.4175 7.5275 -1.4375 7.1875 C-1.1075 5.8675 -0.7775 4.5475 -0.4375 3.1875 C-1.4275 3.6825 -1.4275 3.6825 -2.4375 4.1875 C-3.09305119 6.71483235 -3.09305119 6.71483235 -3.4375 9.1875 C-4.0975 8.8575 -4.7575 8.5275 -5.4375 8.1875 C-5.47991723 5.85455225 -5.47842937 3.52047433 -5.4375 1.1875 C-3.84855928 -0.40144072 -2.18948576 0.01751589 0 0 Z " fill="#ECECEC" transform="translate(170.4375,265.8125)"/>
<path d="M0 0 C0.66 0.66 1.32 1.32 2 2 C2.33 1.34 2.66 0.68 3 0 C3.66 0 4.32 0 5 0 C5.33 0.33 5.66 0.66 6 1 C6.99 1 7.98 1 9 1 C9.99 1.33 10.98 1.66 12 2 C10.73333442 5.79999673 9.41402726 6.95158364 6 9 C2.6875 8.25 2.6875 8.25 0 7 C0 4.69 0 2.38 0 0 Z " fill="#DCA5A6" transform="translate(441,245)"/>
<path d="M0 0 C1.32 0.66 2.64 1.32 4 2 C4 3.98 4 5.96 4 8 C3.34 7.01 2.68 6.02 2 5 C0.00383446 6.99616554 0.59016573 10.81701963 0.4375 13.5625 C0.39431641 14.27341797 0.35113281 14.98433594 0.30664062 15.71679688 C0.20028223 17.47761912 0.09961154 19.2387832 0 21 C2.31 21 4.62 21 7 21 C7.33 20.01 7.66 19.02 8 18 C8.66 18.66 9.32 19.32 10 20 C9.67 20.66 9.34 21.32 9 22 C1.58823529 23.29411765 1.58823529 23.29411765 -1 22 C-1.22531972 18.70926338 -1.42735982 15.41750581 -1.625 12.125 C-1.68945312 11.18785156 -1.75390625 10.25070313 -1.8203125 9.28515625 C-1.871875 8.38925781 -1.9234375 7.49335938 -1.9765625 6.5703125 C-2.02893066 5.74289551 -2.08129883 4.91547852 -2.13525391 4.06298828 C-2 2 -2 2 0 0 Z " fill="#E5B0AE" transform="translate(401,230)"/>
<path d="M0 0 C1.32 0 2.64 0 4 0 C5.09025527 27.51154781 5.09025527 27.51154781 5.1875 37.625 C5.20167969 38.83414063 5.21585937 40.04328125 5.23046875 41.2890625 C5 44 5 44 3 46 C2.67 31.81 2.34 17.62 2 3 C1.01 2.67 0.02 2.34 -1 2 C-0.67 1.34 -0.34 0.68 0 0 Z " fill="#D0A1A0" transform="translate(348,205)"/>
<path d="M0 0 C2 2 2 2 2.125 5.125 C2.08375 6.07375 2.0425 7.0225 2 8 C1.01 7.67 0.02 7.34 -1 7 C-1 6.01 -1 5.02 -1 4 C-1.66 3.67 -2.32 3.34 -3 3 C-2.67 3.99 -2.34 4.98 -2 6 C-2.33 6.66 -2.66 7.32 -3 8 C-3.66 8 -4.32 8 -5 8 C-5.33 6.35 -5.66 4.7 -6 3 C-6.33 3 -6.66 3 -7 3 C-7.33 4.98 -7.66 6.96 -8 9 C-8.66 8.67 -9.32 8.34 -10 8 C-10 5.69 -10 3.38 -10 1 C-6.47940432 -0.17353189 -3.693507 -0.20146402 0 0 Z " fill="#EBEBEB" transform="translate(365,266)"/>
<path d="M0 0 C0.99 0 1.98 0 3 0 C3 1.65 3 3.3 3 5 C5.31 5.66 7.62 6.32 10 7 C10 7.66 10 8.32 10 9 C10.66 9 11.32 9 12 9 C13.24461474 12.59555368 13.08393041 15.36109078 12 19 C9.4375 20.875 9.4375 20.875 7 22 C6.67 21.01 6.34 20.02 6 19 C6.99 18.34 7.98 17.68 9 17 C9.25015873 13.41642759 9.25015873 13.41642759 9 10 C6.36 9.01 3.72 8.02 1 7 C1 5.68 1 4.36 1 3 C0.34 3 -0.32 3 -1 3 C-0.67 2.01 -0.34 1.02 0 0 Z " fill="#E3B5B7" transform="translate(322,225)"/>
<path d="M0 0 C2.31 0.33 4.62 0.66 7 1 C6.67 1.66 6.34 2.32 6 3 C4.68 3 3.36 3 2 3 C2 9.6 2 16.2 2 23 C1.34 23 0.68 23 0 23 C0 15.41 0 7.82 0 0 Z " fill="#DFB3B5" transform="translate(311,205)"/>
<path d="M0 0 C3 2 3 2 3.75 4.875 C4 8 4 8 3.5 9.9375 C2.74206877 13.06396632 3.4579673 15.86825549 4 19 C5.65 19 7.3 19 9 19 C9.33 17.68 9.66 16.36 10 15 C10.33 16.65 10.66 18.3 11 20 C7.7 20 4.4 20 1 20 C0.67 13.4 0.34 6.8 0 0 Z " fill="#DFB5B4" transform="translate(199,232)"/>
<path d="M0 0 C2.49361571 1.20381448 4.68143083 2.45428722 7 4 C4.69 4.33 2.38 4.66 0 5 C0.75150023 8.27773504 0.75150023 8.27773504 4 10 C4 10.66 4 11.32 4 12 C3.34 12 2.68 12 2 12 C1.67 12.66 1.34 13.32 1 14 C0.67 13.34 0.34 12.68 0 12 C-0.66 12.66 -1.32 13.32 -2 14 C-2 12.02 -2 10.04 -2 8 C-2.66 8 -3.32 8 -4 8 C-4.33 8.66 -4.66 9.32 -5 10 C-4.67 7.69 -4.34 5.38 -4 3 C-2.35 2.67 -0.7 2.34 1 2 C0.67 1.34 0.34 0.68 0 0 Z " fill="#E8B1B2" transform="translate(363,235)"/>
<path d="M0 0 C1.67542976 0.28604898 3.34385343 0.61781233 5 1 C4.95875 1.78375 4.9175 2.5675 4.875 3.375 C4.71271266 6.16116119 4.71271266 6.16116119 7 8 C9.89967757 8.30675232 12.71783178 8.51173371 15.625 8.625 C16.42679688 8.66367188 17.22859375 8.70234375 18.0546875 8.7421875 C20.03607556 8.83653931 22.01800645 8.91936215 24 9 C24 9.33 24 9.66 24 10 C8.24102067 12.10374724 8.24102067 12.10374724 3.0625 8.3125 C0.55274941 6.08957805 -0.55580046 4.34912348 -1 1 C-0.67 0.67 -0.34 0.34 0 0 Z " fill="#EABABC" transform="translate(153,242)"/>
<path d="M0 0 C0.33 0 0.66 0 1 0 C1 7.26 1 14.52 1 22 C0.01 22.33 -0.98 22.66 -2 23 C-2 24.32 -2 25.64 -2 27 C-1.34 27 -0.68 27 0 27 C-0.33 27.99 -0.66 28.98 -1 30 C-1 29.34 -1 28.68 -1 28 C-1.8971875 27.566875 -1.8971875 27.566875 -2.8125 27.125 C-5 26 -5 26 -8 24 C-6.60203108 21.20406217 -4.86525011 21.04826223 -2 20 C-1.34 19.67 -0.68 19.34 0 19 C0 12.73 0 6.46 0 0 Z " fill="#D4A7A7" transform="translate(431,206)"/>
<path d="M0 0 C3.63 0 7.26 0 11 0 C11 3.3 11 6.6 11 10 C10.01 10.495 10.01 10.495 9 11 C9 8.03 9 5.06 9 2 C7.02 2 5.04 2 3 2 C2.67 4.64 2.34 7.28 2 10 C-0.09350689 6.5980513 -0.17942163 3.94727588 0 0 Z " fill="#DBB3B4" transform="translate(45,214)"/>
<path d="M0 0 C2.31 0.33 4.62 0.66 7 1 C8.125 5.75 8.125 5.75 7 8 C5.66666667 8.33333333 4.33333333 8.66666667 3 9 C2.67 9.66 2.34 10.32 2 11 C1.34 11 0.68 11 0 11 C0 7.37 0 3.74 0 0 Z M3 2 C2.67 3.32 2.34 4.64 2 6 C3.32 5.67 4.64 5.34 6 5 C5.01 4.01 4.02 3.02 3 2 Z " fill="#E2E2E2" transform="translate(275,266)"/>
<path d="M0 0 C1.32 0.66 2.64 1.32 4 2 C4 7.94 4 13.88 4 20 C5.98 20 7.96 20 10 20 C10.66 19.34 11.32 18.68 12 18 C12.66 18.66 13.32 19.32 14 20 C13.67 20.66 13.34 21.32 13 22 C9.18015204 22.77811718 6.73159669 23.24386556 3 22 C2.96261719 20.89140625 2.92523438 19.7828125 2.88671875 18.640625 C2.82104552 17.17705026 2.75459865 15.71351009 2.6875 14.25 C2.66494141 13.52039063 2.64238281 12.79078125 2.61914062 12.0390625 C2.40690219 7.79429381 2.02929201 5.086142 -1 2 C-0.67 1.34 -0.34 0.68 0 0 Z " fill="#E6BDBE" transform="translate(77,230)"/>
<path d="M0 0 C6.93 0 13.86 0 21 0 C21 0.33 21 0.66 21 1 C15.06 1.495 15.06 1.495 9 2 C9 3.65 9 5.3 9 7 C7.5 8.8125 7.5 8.8125 6 10 C5.34 9.67 4.68 9.34 4 9 C4 7.33333333 4 5.66666667 4 4 C3.34 4 2.68 4 2 4 C2 3.34 2 2.68 2 2 C1.34 1.34 0.68 0.68 0 0 Z " fill="#D4A8A8" transform="translate(157,224)"/>
<path d="M0 0 C-0.33 0.66 -0.66 1.32 -1 2 C-2.92578125 2.2734375 -2.92578125 2.2734375 -5.3125 2.375 C-9.60553008 2.74180953 -11.17770672 3.65505982 -14 7 C-16 7.875 -16 7.875 -18 8 C-20.25 7.0625 -20.25 7.0625 -22 6 C-21.67 5.34 -21.34 4.68 -21 4 C-20.34 4 -19.68 4 -19 4 C-19 4.66 -19 5.32 -19 6 C-17.35 5.34 -15.7 4.68 -14 4 C-14 3.34 -14 2.68 -14 2 C-4.58997722 -1.62870159 -4.58997722 -1.62870159 0 0 Z " fill="#E3B7B6" transform="translate(108,224)"/>
<path d="M0 0 C0.33 0 0.66 0 1 0 C1.19397476 1.97854258 1.38001321 3.9578648 1.5625 5.9375 C1.66691406 7.03964844 1.77132813 8.14179688 1.87890625 9.27734375 C1.91886719 10.17582031 1.95882813 11.07429687 2 12 C1.67 12.33 1.34 12.66 1 13 C-0.69141656 12.91036938 -2.37959602 12.75422324 -4.0625 12.5625 C-4.98160156 12.46066406 -5.90070313 12.35882813 -6.84765625 12.25390625 C-7.55792969 12.17011719 -8.26820313 12.08632812 -9 12 C-8.34 11.34 -7.68 10.68 -7 10 C-4.875 10.375 -4.875 10.375 -3 11 C-2.95101563 10.37351563 -2.90203125 9.74703125 -2.8515625 9.1015625 C-2.77679688 8.28429687 -2.70203125 7.46703125 -2.625 6.625 C-2.55539062 5.81289062 -2.48578125 5.00078125 -2.4140625 4.1640625 C-2 2 -2 2 0 0 Z " fill="#E9B1B2" transform="translate(350,240)"/>
<path d="M0 0 C0.99 0 1.98 0 3 0 C3.9774373 4.30072413 3.98453016 6.15497282 2 10 C2.27942455 11.67654729 2.60828247 13.34608154 3 15 C2.67 15.66 2.34 16.32 2 17 C1.01 16.67 0.02 16.34 -1 16 C-1.02685095 13.52076199 -1.04676547 11.0418116 -1.0625 8.5625 C-1.07506836 7.50192383 -1.07506836 7.50192383 -1.08789062 6.41992188 C-1.09653588 4.61306441 -1.05220011 2.80612397 -1 1 C-0.67 0.67 -0.34 0.34 0 0 Z " fill="#DDB0AF" transform="translate(168,229)"/>
<path d="M0 0 C-0.33 7.26 -0.66 14.52 -1 22 C-1.33 22 -1.66 22 -2 22 C-2 15.07 -2 8.14 -2 1 C-6.455 1.495 -6.455 1.495 -11 2 C-11 1.01 -11 0.02 -11 -1 C-6.13160991 -2.13218374 -4.94554184 -1.97821674 0 0 Z " fill="#CAADB4" transform="translate(150,206)"/>
<path d="M0 0 C1.65 0.33 3.3 0.66 5 1 C5.33 2.32 5.66 3.64 6 5 C5.01 5.33 4.02 5.66 3 6 C3.66 6 4.32 6 5 6 C5 6.66 5 7.32 5 8 C3.02 8 1.04 8 -1 8 C-1.625 5.6875 -1.625 5.6875 -2 3 C-1.34 2.01 -0.68 1.02 0 0 Z " fill="#E7E7E7" transform="translate(294,266)"/>
<path d="M0 0 C0.598125 0.20625 1.19625 0.4125 1.8125 0.625 C2.1425 1.945 2.4725 3.265 2.8125 4.625 C1.8225 4.955 0.8325 5.285 -0.1875 5.625 C0.4725 5.625 1.1325 5.625 1.8125 5.625 C1.8125 6.285 1.8125 6.945 1.8125 7.625 C-0.1675 7.625 -2.1475 7.625 -4.1875 7.625 C-4.5175 5.645 -4.8475 3.665 -5.1875 1.625 C-2.1875 -0.375 -2.1875 -0.375 0 0 Z " fill="#E7E7E7" transform="translate(191.1875,266.375)"/>
<path d="M0 0 C-0.33 0.99 -0.66 1.98 -1 3 C-1.99 2.67 -2.98 2.34 -4 2 C-3.67 4.97 -3.34 7.94 -3 11 C-7 10 -7 10 -8 9 C-7.82364548 6.30917128 -7.38164079 3.67148554 -7 1 C-4.50935112 0.31292445 -2.62113708 0 0 0 Z " fill="#DAB1B4" transform="translate(175,207)"/>
<path d="M0 0 C2.125 0.9375 2.125 0.9375 4 2 C4 4 4 6 4 8 C1.625 8.125 1.625 8.125 -1 8 C-1.66 7.34 -2.32 6.68 -3 6 C-2.75 3.4375 -2.75 3.4375 -2 1 C-1.34 0.67 -0.68 0.34 0 0 Z " fill="#ECECEC" transform="translate(379,266)"/>
<path d="M0 0 C0.78375 0.474375 1.5675 0.94875 2.375 1.4375 C3.88948678 2.33898023 5.4235897 3.21179485 7 4 C6.67 5.32 6.34 6.64 6 8 C6.99 8.33 7.98 8.66 9 9 C5.04 9 1.08 9 -3 9 C-2 7 -2 7 1 6 C1 5.34 1 4.68 1 4 C0.34 3.67 -0.32 3.34 -1 3 C-0.67 2.01 -0.34 1.02 0 0 Z " fill="#DBA8A8" transform="translate(102,244)"/>
<path d="M0 0 C2.625 0.375 2.625 0.375 5 1 C6.125 5.75 6.125 5.75 5 8 C3.00045254 8.04254356 0.99958364 8.04080783 -1 8 C-2 7 -2 7 -2.1875 4.5625 C-2 2 -2 2 0 0 Z M1 2 C0.67 3.32 0.34 4.64 0 6 C0.99 6 1.98 6 3 6 C3 5.01 3 4.02 3 3 C2.34 2.67 1.68 2.34 1 2 Z " fill="#EBEBEB" transform="translate(134,266)"/>
<path d="M0 0 C0.556875 0.226875 1.11375 0.45375 1.6875 0.6875 C2.0175 2.6675 2.3475 4.6475 2.6875 6.6875 C1.0375 7.0175 -0.6125 7.3475 -2.3125 7.6875 C-2.9725 6.6975 -3.6325 5.7075 -4.3125 4.6875 C-5.3025 4.6875 -6.2925 4.6875 -7.3125 4.6875 C-7.3125 4.0275 -7.3125 3.3675 -7.3125 2.6875 C-3.15982824 -0.42700382 -3.15982824 -0.42700382 0 0 Z " fill="#E3AFAF" transform="translate(398.3125,223.3125)"/>
<path d="M0 0 C3.41059865 0.77785583 5.1610146 1.31495518 7.5625 3.8125 C7.5625 4.8025 7.5625 5.7925 7.5625 6.8125 C6.9025 6.8125 6.2425 6.8125 5.5625 6.8125 C5.2325 6.1525 4.9025 5.4925 4.5625 4.8125 C3.9025 5.4725 3.2425 6.1325 2.5625 6.8125 C1.9025 6.1525 1.2425 5.4925 0.5625 4.8125 C-1.08954456 4.11038106 -2.75673769 3.44278587 -4.4375 2.8125 C-5.0975 2.4825 -5.7575 2.1525 -6.4375 1.8125 C-3.4375 -0.1875 -3.4375 -0.1875 0 0 Z " fill="#E4B3B5" transform="translate(200.4375,223.1875)"/>
<path d="M0 0 C2 2 2 2 2 5 C-2.41100077 8.96990069 -7.43296933 8.29186374 -13 8 C-10.61888753 6.75544445 -8.54268149 5.86933757 -5.9375 5.125 C-2.73671626 3.89916793 -1.73315313 2.88858855 0 0 Z " fill="#DAB2B0" transform="translate(338,245)"/>
<path d="M0 0 C0.68835938 0.63228516 0.68835938 0.63228516 1.390625 1.27734375 C2.00421875 1.82519531 2.6178125 2.37304688 3.25 2.9375 C3.85328125 3.48277344 4.4565625 4.02804688 5.078125 4.58984375 C7.10641671 6.07808218 8.58319316 6.44573232 11 7 C11.66 7.66 12.32 8.32 13 9 C9.80001432 10.00570979 8.45915981 10.21864753 5.375 8.75 C1.36363636 5.79425837 1.36363636 5.79425837 0 4 C0 2.68 0 1.36 0 0 Z " fill="#E0B7B5" transform="translate(353,243)"/>
<path d="M0 0 C0.66 0 1.32 0 2 0 C2 3.63 2 7.26 2 11 C2.99 10.67 3.98 10.34 5 10 C7.1875 10.9375 7.1875 10.9375 9 12 C5.72921858 12.96912042 3.60964568 13 0 13 C0 8.71 0 4.42 0 0 Z " fill="#E6B5B7" transform="translate(180,240)"/>
<path d="M0 0 C7.44454756 0.61020882 7.44454756 0.61020882 9.78125 2.25 C11.42820414 4.61485722 11.1348426 5.8814419 10.6875 8.6875 C10.50767578 9.89986328 10.50767578 9.89986328 10.32421875 11.13671875 C10.21722656 11.75160156 10.11023438 12.36648437 10 13 C9.01 12.67 8.02 12.34 7 12 C7 9.69 7 7.38 7 5 C4.69 4.01 2.38 3.02 0 2 C0 1.34 0 0.68 0 0 Z " fill="#E3BABA" transform="translate(243,230)"/>
<path d="M0 0 C1.69752187 0.25245197 3.38471545 0.57645775 5.0625 0.9375 C5.98160156 1.13214844 6.90070313 1.32679688 7.84765625 1.52734375 C8.91306641 1.76130859 8.91306641 1.76130859 10 2 C9.67 2.66 9.34 3.32 9 4 C6.67624308 4.39460023 4.3406065 4.72230092 2 5 C0.66082739 5.30903983 -0.67653254 5.62942911 -2 6 C-1.125 1.125 -1.125 1.125 0 0 Z " fill="#E2A6A6" transform="translate(290,245)"/>
<path d="M0 0 C0.495 0.350625 0.99 0.70125 1.5 1.0625 C5.22697603 2.46011601 8.09802848 1.65032859 12 1 C12 1.99 12 2.98 12 4 C8.32589215 5.17571451 4.83070817 5.07366746 1 5 C0.67 3.35 0.34 1.7 0 0 Z " fill="#DEB1B0" transform="translate(239,241)"/>
<path d="M0 0 C0.66 0.33 1.32 0.66 2 1 C2 3.97 2 6.94 2 10 C2.66 10 3.32 10 4 10 C4.66 11.98 5.32 13.96 6 16 C3.3754772 15.00449135 2.04971273 14.06036546 0.25 11.875 C-1.44285311 7.98143785 -1.28186861 5.22802909 -1 1 C-0.67 0.67 -0.34 0.34 0 0 Z " fill="#E0B9BB" transform="translate(283,234)"/>
<path d="M0 0 C5.28 0 10.56 0 16 0 C16.33 0.99 16.66 1.98 17 3 C16.01 3 15.02 3 14 3 C13.67 3.66 13.34 4.32 13 5 C12.34 4.01 11.68 3.02 11 2 C8.43717258 1.27034634 8.43717258 1.27034634 6 1 C5.67 1.99 5.34 2.98 5 4 C4.34 4 3.68 4 3 4 C3 3.34 3 2.68 3 2 C2.01 1.34 1.02 0.68 0 0 Z " fill="#E3B3B4" transform="translate(162,225)"/>
<path d="M0 0 C2 3 2 3 2 5 C2.66 5.33 3.32 5.66 4 6 C4 4.35 4 2.7 4 1 C4.66 0.67 5.32 0.34 6 0 C6.04241723 2.33294775 6.04092937 4.66702567 6 7 C5 8 5 8 2.4375 8.0625 C1.633125 8.041875 0.82875 8.02125 0 8 C-0.38063221 5.6739143 -0.71269945 3.33944736 -1 1 C-0.67 0.67 -0.34 0.34 0 0 Z " fill="#E5E5E5" transform="translate(339,266)"/>
<path d="M0 0 C0.33 0 0.66 0 1 0 C1.33 2.64 1.66 5.28 2 8 C2.33 8 2.66 8 3 8 C2.67 11.63 2.34 15.26 2 19 C1.34 19 0.68 19 0 19 C0 12.73 0 6.46 0 0 Z " fill="#E6A3A6" transform="translate(182,232)"/>
<path d="M0 0 C-2.31 0 -4.62 0 -7 0 C-7.33 1.32 -7.66 2.64 -8 4 C-8.99 4 -9.98 4 -11 4 C-11.33 4.66 -11.66 5.32 -12 6 C-12.66 4.35 -13.32 2.7 -14 1 C-9.30094583 -1.71099279 -4.77976062 -3.1252281 0 0 Z " fill="#E7B8B8" transform="translate(370,225)"/>
<path d="M0 0 C0 1.98 0 3.96 0 6 C-0.33 6 -0.66 6 -1 6 C-1.33 4.35 -1.66 2.7 -2 1 C-2 1.99 -2 2.98 -2 4 C-5 5 -5 5 -8 4 C-8 2.35 -8 0.7 -8 -1 C-4.59745511 -2.2151946 -3.06748874 -1.86240388 0 0 Z " fill="#D6A2A4" transform="translate(179,210)"/>
<path d="M0 0 C2.125 0.375 2.125 0.375 4 1 C4 3.31 4 5.62 4 8 C3.01 8.495 3.01 8.495 2 9 C-0.125 8.0625 -0.125 8.0625 -2 7 C-0.68 6.34 0.64 5.68 2 5 C1.01 5 0.02 5 -1 5 C-1.33 4.01 -1.66 3.02 -2 2 C-1.34 1.34 -0.68 0.68 0 0 Z " fill="#EBEBEB" transform="translate(151,266)"/>
<path d="M0 0 C2.0625 0.4375 2.0625 0.4375 4 1 C3.67 1.66 3.34 2.32 3 3 C3.33 3.33 3.66 3.66 4 4 C4 5.32 4 6.64 4 8 C3.01 8.495 3.01 8.495 2 9 C1.01 8.67 0.02 8.34 -1 8 C-1 6 -1 6 0 5 C-0.165 4.34 -0.33 3.68 -0.5 3 C-0.665 2.34 -0.83 1.68 -1 1 C-0.67 0.67 -0.34 0.34 0 0 Z " fill="#ECECEC" transform="translate(247,266)"/>
<path d="M0 0 C0.66 0.33 1.32 0.66 2 1 C2 4.96 2 8.92 2 13 C1.01 13.33 0.02 13.66 -1 14 C-1.22142255 12.04310341 -1.4267568 10.08438048 -1.625 8.125 C-1.74101562 7.03445312 -1.85703125 5.94390625 -1.9765625 4.8203125 C-1.98429688 3.88960937 -1.99203125 2.95890625 -2 2 C-1.34 1.34 -0.68 0.68 0 0 Z " fill="#E2B2B4" transform="translate(230,233)"/>
<path d="M0 0 C0 0.66 0 1.32 0 2 C-0.99 2 -1.98 2 -3 2 C-3.33 2.99 -3.66 3.98 -4 5 C-2.68 5 -1.36 5 0 5 C0 5.66 0 6.32 0 7 C-1.98 7 -3.96 7 -6 7 C-6 4.69 -6 2.38 -6 0 C-3.50907189 -1.24546405 -2.58919267 -0.7767578 0 0 Z " fill="#E5E5E5" transform="translate(236,267)"/>
<path d="M0 0 C2.625 0.375 2.625 0.375 5 1 C4.34 1.66 3.68 2.32 3 3 C2.34 3 1.68 3 1 3 C0.67 3.99 0.34 4.98 0 6 C1.65 6 3.3 6 5 6 C5 6.66 5 7.32 5 8 C3.00045254 8.04254356 0.99958364 8.04080783 -1 8 C-2 7 -2 7 -2.1875 4.5625 C-2 2 -2 2 0 0 Z " fill="#E6E6E6" transform="translate(118,266)"/>
<path d="M0 0 C2.86688248 0.09096556 5.70300515 0.23767988 8.5625 0.4375 C9.36880859 0.48970703 10.17511719 0.54191406 11.00585938 0.59570312 C13.00421738 0.72577376 15.00215386 0.86229056 17 1 C13.72311897 2.95218444 11.22930273 3.27063566 7.4375 3.25 C6.01244141 3.25773438 6.01244141 3.25773438 4.55859375 3.265625 C2 3 2 3 -1 1 C-0.67 0.67 -0.34 0.34 0 0 Z " fill="#E6BABB" transform="translate(52,250)"/>
<path d="M0 0 C0.99 0 1.98 0 3 0 C3.33 0.99 3.66 1.98 4 3 C7.3 3 10.6 3 14 3 C14 3.33 14 3.66 14 4 C5.585 4.495 5.585 4.495 -3 5 C-3 4.01 -3 3.02 -3 2 C-2.01 2 -1.02 2 0 2 C0 1.34 0 0.68 0 0 Z " fill="#D8A09D" transform="translate(102,236)"/>
<path d="M0 0 C2.4375 0.6875 2.4375 0.6875 5 2 C5.8125 4.625 5.8125 4.625 6 7 C4.68 6.67 3.36 6.34 2 6 C2 5.34 2 4.68 2 4 C1.01 4 0.02 4 -1 4 C-1.33 5.65 -1.66 7.3 -2 9 C-2.66 7.68 -3.32 6.36 -4 5 C-3.34 4.34 -2.68 3.68 -2 3 C-1.01 3 -0.02 3 1 3 C0.67 2.01 0.34 1.02 0 0 Z " fill="#E6B7B9" transform="translate(111,225)"/>
<path d="M0 0 C0.53625 0.226875 1.0725 0.45375 1.625 0.6875 C1.295 2.0075 0.965 3.3275 0.625 4.6875 C-2.345 4.6875 -5.315 4.6875 -8.375 4.6875 C-8.375 4.0275 -8.375 3.3675 -8.375 2.6875 C-2.95961538 -0.38942308 -2.95961538 -0.38942308 0 0 Z " fill="#D9B1AF" transform="translate(248.375,248.3125)"/>
<path d="M0 0 C0 0.33 0 0.66 0 1 C-0.7425 1.12375 -1.485 1.2475 -2.25 1.375 C-6.57008844 2.35683828 -9.53894678 4.28060104 -13 7 C-11.92598892 4.08482708 -11.22189824 2.22189824 -9 0 C-5.42460821 -0.83679382 -3.52044638 -1.17348213 0 0 Z " fill="#DFB6B8" transform="translate(245,224)"/>
<path d="M0 0 C3.3 0.66 6.6 1.32 10 2 C10 2.66 10 3.32 10 4 C10.66 4 11.32 4 12 4 C12.33 5.32 12.66 6.64 13 8 C11.1875 7.75 11.1875 7.75 9 7 C8.566875 6.34 8.13375 5.68 7.6875 5 C6.0229421 2.60758753 6.0229421 2.60758753 2.3125 2.25 C1.219375 2.1675 0.12625 2.085 -1 2 C-0.67 1.34 -0.34 0.68 0 0 Z " fill="#E0B7B7" transform="translate(328,223)"/>
<path d="M0 0 C2.64 0 5.28 0 8 0 C7.625 1.9375 7.625 1.9375 7 4 C6.01 4.495 6.01 4.495 5 5 C3.68 3.68 2.36 2.36 1 1 C0.67 2.32 0.34 3.64 0 5 C-0.99 4.67 -1.98 4.34 -3 4 C-3 3.34 -3 2.68 -3 2 C-2.01 2 -1.02 2 0 2 C0 1.34 0 0.68 0 0 Z " fill="#EBB1B0" transform="translate(252,225)"/>
<path d="M0 0 C1.32 0 2.64 0 4 0 C3.67 1.65 3.34 3.3 3 5 C0.69 5 -1.62 5 -4 5 C-1.125 1.125 -1.125 1.125 0 0 Z " fill="#D8A5A6" transform="translate(166,246)"/>
<path d="M0 0 C1.66666667 1.66666667 3.33333333 3.33333333 5 5 C5.8971875 5.8353125 5.8971875 5.8353125 6.8125 6.6875 C8 8 8 8 8 10 C7.34 10 6.68 10 6 10 C6 9.34 6 8.68 6 8 C5.34 8 4.68 8 4 8 C4 7.34 4 6.68 4 6 C2.35 5.67 0.7 5.34 -1 5 C-0.67 3.35 -0.34 1.7 0 0 Z " fill="#E4B9BA" transform="translate(159,238)"/>
<path d="M0 0 C-2.125 2.125 -2.125 2.125 -5 4 C-8.3125 3.25 -8.3125 3.25 -11 2 C-10.67 1.34 -10.34 0.68 -10 0 C-6.35346727 -1.11421833 -3.66708957 -0.94296589 0 0 Z " fill="#E1A5A7" transform="translate(86,225)"/>
<path d="M0 0 C0.66 0.33 1.32 0.66 2 1 C1.67 1.99 1.34 2.98 1 4 C0.34 4 -0.32 4 -1 4 C-1 9.28 -1 14.56 -1 20 C-1.33 20 -1.66 20 -2 20 C-2.24798276 17.04213336 -2.47411854 14.08538702 -2.6875 11.125 C-2.76033203 10.28324219 -2.83316406 9.44148437 -2.90820312 8.57421875 C-2.96298828 7.76855469 -3.01777344 6.96289062 -3.07421875 6.1328125 C-3.13182373 5.38918457 -3.18942871 4.64555664 -3.2487793 3.87939453 C-3.16668213 3.25919434 -3.08458496 2.63899414 -3 2 C-2.01 1.34 -1.02 0.68 0 0 Z " fill="#DFBBC1" transform="translate(62,204)"/>
<path d="M0 0 C1.32 0.33 2.64 0.66 4 1 C4 1.99 4 2.98 4 4 C3.34 4 2.68 4 2 4 C2 5.98 2 7.96 2 10 C1.34 10 0.68 10 0 10 C0 8.02 0 6.04 0 4 C-0.66 3.67 -1.32 3.34 -2 3 C-1.34 3 -0.68 3 0 3 C0 2.01 0 1.02 0 0 Z " fill="#E8E8E8" transform="translate(325,264)"/>
<path d="M0 0 C2.88395737 1.44197868 4.76525152 3.70644235 7 6 C6.67 6.66 6.34 7.32 6 8 C5.34 8 4.68 8 4 8 C4 7.34 4 6.68 4 6 C2.68 6 1.36 6 0 6 C-0.12375 5.360625 -0.2475 4.72125 -0.375 4.0625 C-0.684375 3.0415625 -0.684375 3.0415625 -1 2 C-1.66 1.67 -2.32 1.34 -3 1 C-2.01 0.67 -1.02 0.34 0 0 Z " fill="#D3A6A0" transform="translate(228,243)"/>
<path d="M0 0 C0.99 0.33 1.98 0.66 3 1 C2.01 3.31 1.02 5.62 0 8 C-1.32 7.34 -2.64 6.68 -4 6 C-2.68 4.02 -1.36 2.04 0 0 Z " fill="#E1B4B6" transform="translate(70,230)"/>
<path d="M0 0 C0.66 0 1.32 0 2 0 C4 2 4 2 5 4 C7.32156597 4.40729228 9.6568787 4.74438677 12 5 C12 5.33 12 5.66 12 6 C7.07008655 6.28999491 3.90748231 6.19703098 0 3 C0 2.01 0 1.02 0 0 Z " fill="#DBB6B6" transform="translate(413,247)"/>
<path d="M0 0 C1 3 1 3 1 5 C1.99 5.33 2.98 5.66 4 6 C4 6.66 4 7.32 4 8 C2.35 8.33 0.7 8.66 -1 9 C-1.33 6.36 -1.66 3.72 -2 1 C-1.34 0.67 -0.68 0.34 0 0 Z " fill="#DAABAE" transform="translate(73,224)"/>
<path d="M0 0 C1.32 0.66 2.64 1.32 4 2 C3.814375 2.78375 3.62875 3.5675 3.4375 4.375 C2.74037734 6.97089775 2.74037734 6.97089775 4 9 C2.68 8.67 1.36 8.34 0 8 C-1.125 2.25 -1.125 2.25 0 0 Z " fill="#EDEDED" transform="translate(204,265)"/>
<path d="M0 0 C0.33 0.99 0.66 1.98 1 3 C2.98 3 4.96 3 7 3 C6.67 3.66 6.34 4.32 6 5 C-0.0546875 5.1953125 -0.0546875 5.1953125 -2 5 C-2.66 4.34 -3.32 3.68 -4 3 C-2.68 2.67 -1.36 2.34 0 2 C0 1.34 0 0.68 0 0 Z " fill="#DDB6B6" transform="translate(265,248)"/>
<path d="M0 0 C0.33 0 0.66 0 1 0 C1.04898437 0.88042969 1.09796875 1.76085937 1.1484375 2.66796875 C1.22320312 3.82941406 1.29796875 4.99085938 1.375 6.1875 C1.44460938 7.33605469 1.51421875 8.48460937 1.5859375 9.66796875 C1.97509574 12.79959117 2.6809851 15.15285809 4 18 C2.68 17.67 1.36 17.34 0 17 C0 11.39 0 5.78 0 0 Z " fill="#D49D9B" transform="translate(409,231)"/>
<path d="M0 0 C2.97 0.495 2.97 0.495 6 1 C6 1.99 6 2.98 6 4 C4.35 3.67 2.7 3.34 1 3 C0.67 3.66 0.34 4.32 0 5 C-0.99 4.67 -1.98 4.34 -3 4 C-2.01 2.68 -1.02 1.36 0 0 Z " fill="#E5B6B8" transform="translate(372,242)"/>
<path d="M0 0 C2.62901288 1.52206009 4.84365964 2.84365964 7 5 C6.34 5.66 5.68 6.32 5 7 C3.68 7 2.36 7 1 7 C-1 4 -1 4 -0.625 1.8125 C-0.41875 1.214375 -0.2125 0.61625 0 0 Z " fill="#DB9FA0" transform="translate(87,242)"/>
<path d="M0 0 C0.33 1.98 0.66 3.96 1 6 C-0.65 6 -2.3 6 -4 6 C-4.33 4.35 -4.66 2.7 -5 1 C-3 0 -3 0 0 0 Z " fill="#E3A4A5" transform="translate(101,226)"/>
<path d="M0 0 C1.32 0.66 2.64 1.32 4 2 C4 2.99 4 3.98 4 5 C2.02 5.99 2.02 5.99 0 7 C-1.125 2.25 -1.125 2.25 0 0 Z " fill="#E7B7B9" transform="translate(380,225)"/>
<path d="M0 0 C4.62 0 9.24 0 14 0 C12.515 1.485 12.515 1.485 11 3 C10.34 3 9.68 3 9 3 C9 2.34 9 1.68 9 1 C7.02463255 1.34786708 7.02463255 1.34786708 5 2 C4.67 2.66 4.34 3.32 4 4 C2.68 2.68 1.36 1.36 0 0 Z " fill="#CFA6AA" transform="translate(380,224)"/>
<path d="M0 0 C0.66 0.33 1.32 0.66 2 1 C2 1.66 2 2.32 2 3 C3.65 3.33 5.3 3.66 7 4 C6.67 4.99 6.34 5.98 6 7 C4.02 6.01 2.04 5.02 0 4 C0 2.68 0 1.36 0 0 Z " fill="#E3B9B9" transform="translate(213,246)"/>
<path d="M0 0 C0.66 0.33 1.32 0.66 2 1 C2.44041451 6.37305699 2.44041451 6.37305699 2 9 C-0.5 11 -0.5 11 -3 12 C-3.66 10.68 -4.32 9.36 -5 8 C-3.68 8 -2.36 8 -1 8 C-0.67 5.36 -0.34 2.72 0 0 Z " fill="#E3B8B4" transform="translate(60,235)"/>
<path d="M0 0 C0.66 0.33 1.32 0.66 2 1 C1.67 1.66 1.34 2.32 1 3 C1.33 3.33 1.66 3.66 2 4 C2 4.99 2 5.98 2 7 C1.34 7 0.68 7 0 7 C-0.33 7.66 -0.66 8.32 -1 9 C-3 6 -3 6 -2.75 3.9375 C-2 2 -2 2 0 0 Z " fill="#E2A3A1" transform="translate(157,227)"/>
<path d="M0 0 C0.66 0.66 1.32 1.32 2 2 C-0.125 3.625 -0.125 3.625 -3 5 C-6.3125 4.1875 -6.3125 4.1875 -9 3 C-8.67 2.34 -8.34 1.68 -8 1 C-7.34 1 -6.68 1 -6 1 C-6 1.66 -6 2.32 -6 3 C-4.02 2.01 -2.04 1.02 0 0 Z " fill="#E7C1C3" transform="translate(95,227)"/>
<path d="M0 0 C0.99 0.33 1.98 0.66 3 1 C3 1.66 3 2.32 3 3 C1.56589632 3.24954005 0.12739928 3.47392642 -1.3125 3.6875 C-2.11300781 3.81511719 -2.91351563 3.94273437 -3.73828125 4.07421875 C-6 4 -6 4 -7.79296875 2.51953125 C-8.19128906 2.01808594 -8.58960938 1.51664063 -9 1 C-7.88625 1.020625 -6.7725 1.04125 -5.625 1.0625 C-2.16784079 1.26380718 -2.16784079 1.26380718 0 0 Z " fill="#E4BFC0" transform="translate(388,249)"/>
<path d="M0 0 C1.32 0.66 2.64 1.32 4 2 C3.34 2.66 2.68 3.32 2 4 C1.34 4 0.68 4 0 4 C-0.66 4.66 -1.32 5.32 -2 6 C-2.99 5.67 -3.98 5.34 -5 5 C-4.67 3.68 -4.34 2.36 -4 1 C-2.02 1.495 -2.02 1.495 0 2 C0 1.34 0 0.68 0 0 Z " fill="#D9A09E" transform="translate(153,239)"/>
<path d="M0 0 C0.99 0.33 1.98 0.66 3 1 C1.68 3.64 0.36 6.28 -1 9 C-1.66 8.67 -2.32 8.34 -3 8 C-3.36923077 3.44615385 -3.36923077 3.44615385 -1.5 1.1875 C-1.005 0.795625 -0.51 0.40375 0 0 Z " fill="#E3B5B5" transform="translate(190,231)"/>
<path d="M0 0 C1.32 0.66 2.64 1.32 4 2 C-0.75 5 -0.75 5 -3 5 C-2.67 5.99 -2.34 6.98 -2 8 C-2.99 8.495 -2.99 8.495 -4 9 C-4.33 7.35 -4.66 5.7 -5 4 C-3.35 2.68 -1.7 1.36 0 0 Z " fill="#DAAEAE" transform="translate(423,230)"/>
<path d="M0 0 C1.875 1.4375 1.875 1.4375 2.625 4.5625 C2.7075 5.51125 2.79 6.46 2.875 7.4375 C1.1675002 6.15687515 -0.49873596 4.81982443 -2.125 3.4375 C-2.125 2.7775 -2.125 2.1175 -2.125 1.4375 C-3.115 1.1075 -4.105 0.7775 -5.125 0.4375 C-2.125 -0.5625 -2.125 -0.5625 0 0 Z " fill="#DAA5A3" transform="translate(249.125,245.5625)"/>
<path d="M0 0 C1.32 0.33 2.64 0.66 4 1 C3.67 1.99 3.34 2.98 3 4 C3 3.34 3 2.68 3 2 C2.34 2 1.68 2 1 2 C1.33 3.65 1.66 5.3 2 7 C0.35 7 -1.3 7 -3 7 C-2.34 5.68 -1.68 4.36 -1 3 C-1 3.99 -1 4.98 -1 6 C-1 2 -1 2 0 0 Z " fill="#DFA2A2" transform="translate(375,231)"/>
<path d="M0 0 C2.475 0.495 2.475 0.495 5 1 C4.67 2.65 4.34 4.3 4 6 C3.01 6 2.02 6 1 6 C0.67 4.02 0.34 2.04 0 0 Z " fill="#E9A9A8" transform="translate(303,230)"/>
<path d="M0 0 C1.32 0 2.64 0 4 0 C4 0.66 4 1.32 4 2 C4.99 2.33 5.98 2.66 7 3 C5.02253397 3.73080266 3.01927511 4.39421747 1 5 C0.34 4.67 -0.32 4.34 -1 4 C-0.67 2.68 -0.34 1.36 0 0 Z " fill="#EBB4B4" transform="translate(213,226)"/>
<path d="M0 0 C0.33 0 0.66 0 1 0 C1 1.65 1 3.3 1 5 C1.66 5.33 2.32 5.66 3 6 C0.6875 7.125 0.6875 7.125 -2 8 C-2.99 7.34 -3.98 6.68 -5 6 C-3 4 -3 4 -1 3 C-0.67 2.01 -0.34 1.02 0 0 Z " fill="#E09B9F" transform="translate(70,224)"/>
<path d="M0 0 C0.66 0 1.32 0 2 0 C2 4 2 4 1 7 C1.66 7 2.32 7 3 7 C3.33 6.34 3.66 5.68 4 5 C4 5.66 4 6.32 4 7 C4.66 7.33 5.32 7.66 6 8 C3 9 3 9 0 8 C-0.38063221 5.6739143 -0.71269945 3.33944736 -1 1 C-0.67 0.67 -0.34 0.34 0 0 Z " fill="#DCA29F" transform="translate(124,226)"/>
<path d="M0 0 C1.32 0 2.64 0 4 0 C4 0.66 4 1.32 4 2 C3.01 2.495 3.01 2.495 2 3 C1.34444881 5.52733235 1.34444881 5.52733235 1 8 C0.34 8 -0.32 8 -1 8 C-1.04241723 5.66705225 -1.04092937 3.33297433 -1 1 C-0.67 0.67 -0.34 0.34 0 0 Z " fill="#E9E9E9" transform="translate(310,266)"/>
<path d="M0 0 C0.66 0.66 1.32 1.32 2 2 C1.67 2.66 1.34 3.32 1 4 C-0.77734375 4.484375 -0.77734375 4.484375 -2.9375 4.75 C-3.64777344 4.84796875 -4.35804688 4.9459375 -5.08984375 5.046875 C-7 5 -7 5 -9 3 C-6.36 3 -3.72 3 -1 3 C-0.67 2.01 -0.34 1.02 0 0 Z " fill="#E8BFC1" transform="translate(409,248)"/>
<path d="M0 0 C0.33 0 0.66 0 1 0 C1.33 2.31 1.66 4.62 2 7 C0.02 7.99 -1.96 8.98 -4 10 C-3.34 7.69 -2.68 5.38 -2 3 C-1.34 3 -0.68 3 0 3 C0 2.01 0 1.02 0 0 Z " fill="#EAB2B1" transform="translate(291,238)"/>
<path d="M0 0 C0.66 0.66 1.32 1.32 2 2 C2.66 1.34 3.32 0.68 4 0 C4.33 1.98 4.66 3.96 5 6 C4.01 6.33 3.02 6.66 2 7 C0 4 0 4 0 0 Z " fill="#D6A2A2" transform="translate(339,243)"/>
<path d="M0 0 C1.19397377 2.38794754 1.68393897 4.34508736 2 7 C1.0625 9.3125 1.0625 9.3125 0 11 C-0.185625 10.071875 -0.185625 10.071875 -0.375 9.125 C-0.87197356 6.80879168 -0.87197356 6.80879168 -3 5 C-2.01 3.35 -1.02 1.7 0 0 Z " fill="#DEADAB" transform="translate(148,239)"/>
<path d="M0 0 C0.556875 0.28875 1.11375 0.5775 1.6875 0.875 C4.08494645 2.0413253 6.51596939 3.0339881 9 4 C8.67 4.66 8.34 5.32 8 6 C5.69 5.34 3.38 4.68 1 4 C0.67 2.68 0.34 1.36 0 0 Z " fill="#E3B7B6" transform="translate(218,241)"/>
<path d="M0 0 C6.52307692 -0.36923077 6.52307692 -0.36923077 8.9375 1.5 C9.288125 1.995 9.63875 2.49 10 3 C6.65155086 4.05236973 5.40920111 4.20005388 2.1875 2.625 C1.465625 2.08875 0.74375 1.5525 0 1 C0 0.67 0 0.34 0 0 Z " fill="#E3A5A7" transform="translate(127,225)"/>
<path d="M0 0 C0.99 0.33 1.98 0.66 3 1 C3.33 2.98 3.66 4.96 4 7 C2.68 7.33 1.36 7.66 0 8 C-0.33 7.01 -0.66 6.02 -1 5 C-0.34 4.67 0.32 4.34 1 4 C0.34 3.34 -0.32 2.68 -1 2 C-0.67 1.34 -0.34 0.68 0 0 Z " fill="#E4B7B8" transform="translate(175,210)"/>
<path d="M0 0 C0.66 0 1.32 0 2 0 C1.67 1.65 1.34 3.3 1 5 C-0.32 5.33 -1.64 5.66 -3 6 C-3.66 5.01 -4.32 4.02 -5 3 C-4.360625 2.87625 -3.72125 2.7525 -3.0625 2.625 C-2.0415625 2.315625 -2.0415625 2.315625 -1 2 C-0.67 1.34 -0.34 0.68 0 0 Z " fill="#F0F0F0" transform="translate(281,269)"/>
<path d="M0 0 C1.67542976 0.28604898 3.34385343 0.61781233 5 1 C4.67 1.66 4.34 2.32 4 3 C2.0625 3.5625 2.0625 3.5625 0 4 C-0.99 4.495 -0.99 4.495 -2 5 C-1.125 1.125 -1.125 1.125 0 0 Z " fill="#E3E3E3" transform="translate(134,266)"/>
<path d="M0 0 C0.66 0 1.32 0 2 0 C2.66 1.98 3.32 3.96 4 6 C1.69 6.33 -0.62 6.66 -3 7 C-3.33 6.34 -3.66 5.68 -4 5 C-2.68 4.67 -1.36 4.34 0 4 C0 2.68 0 1.36 0 0 Z " fill="#E6C1C2" transform="translate(146,246)"/>
<path d="M0 0 C0.99 0.33 1.98 0.66 3 1 C2.67 2.32 2.34 3.64 2 5 C0.35 5 -1.3 5 -3 5 C-3 3 -3 3 -1.5 1.375 C-1.005 0.92125 -0.51 0.4675 0 0 Z " fill="#E8AEAE" transform="translate(101,247)"/>
<path d="M0 0 C0.99 0.33 1.98 0.66 3 1 C3 2.32 3 3.64 3 5 C3.33 5.66 3.66 6.32 4 7 C2.35 6.67 0.7 6.34 -1 6 C-0.67 4.02 -0.34 2.04 0 0 Z " fill="#EAB5B4" transform="translate(426,245)"/>
<path d="M0 0 C0.99 0.99 1.98 1.98 3 3 C2.67 3.99 2.34 4.98 2 6 C1.34 5.67 0.68 5.34 0 5 C-0.66 6.32 -1.32 7.64 -2 9 C-2 6.69 -2 4.38 -2 2 C-1.34 2 -0.68 2 0 2 C0 1.34 0 0.68 0 0 Z " fill="#ECB4B2" transform="translate(90,238)"/>
<path d="M0 0 C2.88575819 0.39803561 3.82189513 0.79009069 5.75 3.0625 C6.1625 3.701875 6.575 4.34125 7 5 C6.01 5.33 5.02 5.66 4 6 C4 5.34 4 4.68 4 4 C3.01 3.67 2.02 3.34 1 3 C0.67 2.01 0.34 1.02 0 0 Z " fill="#E3BEC0" transform="translate(404,226)"/>
<path d="M0 0 C1.65 0.33 3.3 0.66 5 1 C4.34 2.32 3.68 3.64 3 5 C1.68 4.67 0.36 4.34 -1 4 C-0.67 2.68 -0.34 1.36 0 0 Z " fill="#DDA9A7" transform="translate(370,224)"/>
<path d="M0 0 C2.64 0 5.28 0 8 0 C8 0.99 8 1.98 8 3 C5.36 3 2.72 3 0 3 C0 2.01 0 1.02 0 0 Z " fill="#EBCACA" transform="translate(253,250)"/>
<path d="M0 0 C2.88437779 1.29299694 4.87219421 2.65941363 7 5 C6.67 5.66 6.34 6.32 6 7 C3.95880212 5.38405168 1.95927063 3.7143618 0 2 C0 1.34 0 0.68 0 0 Z " fill="#E2BABB" transform="translate(153,245)"/>
<path d="M0 0 C1.9375 0.3125 1.9375 0.3125 4 1 C4.33 1.99 4.66 2.98 5 4 C4.34 4 3.68 4 3 4 C2.67 4.66 2.34 5.32 2 6 C1.34 4.02 0.68 2.04 0 0 Z " fill="#E5AEAE" transform="translate(448,242)"/>
<path d="M0 0 C0.99 0.33 1.98 0.66 3 1 C3 1.66 3 2.32 3 3 C3.66 3.33 4.32 3.66 5 4 C3.02 4.99 3.02 4.99 1 6 C1 5.34 1 4.68 1 4 C0.01 3.67 -0.98 3.34 -2 3 C-1.01 3 -0.02 3 1 3 C0.67 2.01 0.34 1.02 0 0 Z " fill="#D8A49F" transform="translate(128,242)"/>
<path d="M0 0 C-1.25 1.5 -1.25 1.5 -3 3 C-4.32 3 -5.64 3 -7 3 C-6.67 2.01 -6.34 1.02 -6 0 C-3.50907189 -1.24546405 -2.58919267 -0.7767578 0 0 Z " fill="#D6B1B3" transform="translate(450,241)"/>
<path d="M0 0 C0.33 0.99 0.66 1.98 1 3 C0.67 3.66 0.34 4.32 0 5 C-2.0625 5.625 -2.0625 5.625 -4 6 C-4 4.68 -4 3.36 -4 2 C-2.68 1.34 -1.36 0.68 0 0 Z " fill="#DDA3A0" transform="translate(111,232)"/>
<path d="M0 0 C0.33 0.99 0.66 1.98 1 3 C-0.98 3.99 -0.98 3.99 -3 5 C-3 4.34 -3 3.68 -3 3 C-3.99 2.67 -4.98 2.34 -6 2 C-4.02 1.34 -2.04 0.68 0 0 Z " fill="#E1B9B8" transform="translate(106,233)"/>
<path d="M0 0 C1.8125 1.4375 1.8125 1.4375 3 3 C0.03 2.505 0.03 2.505 -3 2 C-3 2.66 -3 3.32 -3 4 C-3.99 4.33 -4.98 4.66 -6 5 C-5.67 3.68 -5.34 2.36 -5 1 C-2.6875 0.3125 -2.6875 0.3125 0 0 Z " fill="#E4B7B7" transform="translate(280,223)"/>
<path d="M0 0 C0.99 0 1.98 0 3 0 C3 1.32 3 2.64 3 4 C1.68 4 0.36 4 -1 4 C-0.67 2.68 -0.34 1.36 0 0 Z " fill="#EFEFEF" transform="translate(262,267)"/>
<path d="M0 0 C0.99 0.495 0.99 0.495 2 1 C1.67 1.66 1.34 2.32 1 3 C0.67 2.01 0.34 1.02 0 0 Z " fill="#E6E6E6" transform="translate(218,269)"/>
<path d="" fill="#D5D5D5" transform="translate(0,0)"/>
<path d="" fill="#FFFFFF" transform="translate(0,0)"/>
<path d="" fill="#FFFFFF" transform="translate(0,0)"/>
</svg>
